<?xml version="1.0" encoding="UTF-8"?>
<svg width="22px" height="13px" viewBox="0 0 22 13" version="1.1" xmlns="http://www.w3.org/2000/svg" xmlns:xlink="http://www.w3.org/1999/xlink">
    <!-- Generator: Sketch 52.5 (67469) - http://www.bohemiancoding.com/sketch -->
    <title>Group 20</title>
    <desc>Created with Sketch.</desc>
    <defs>
        <path d="M8.273,0.999 C7.967,0.999 7.775,1.18 7.775,1.426 C7.775,2.047 8.716,2.187 8.716,3.867 L8.716,7.335 C8.716,8.033 8.677,8.304 8.351,8.304 C7.487,8.304 5.433,5.301 4.282,1.891 C4.051,1.193 3.801,0.999 3.149,0.999 L0.634,0.999 C0.269,0.999 0,1.251 0,1.62 C0,2.298 0.787,5.436 3.878,9.64 C5.951,12.47 8.677,14 11.134,14 C12.632,14 12.996,13.748 12.996,13.108 L12.996,10.939 C12.996,10.396 13.207,10.164 13.515,10.164 C13.86,10.164 14.47,10.277 15.895,11.694 C17.585,13.322 17.7,14 18.621,14 L21.444,14 C21.732,14 22,13.864 22,13.38 C22,12.74 21.174,11.598 19.908,10.241 C19.389,9.544 18.544,8.788 18.276,8.44 C17.891,8.033 18.007,7.8 18.276,7.374 C18.276,7.374 21.174,3.247 21.462,1.891 C21.559,1.407 21.347,1.135 20.848,1.135 L18.333,1.135 C17.757,1.135 17.546,1.387 17.373,1.755 C17.373,1.755 16.014,4.68 14.36,6.521 C13.828,7.117 13.559,7.297 13.265,7.297 C13.029,7.297 12.92,7.098 12.92,6.561 L12.92,1.853 C12.92,1.193 12.843,0.999 12.306,0.999 L8.273,0.999 Z" id="path-1"/>
    </defs>
    <g id="Page-1" stroke="none" stroke-width="1" fill="none" fill-rule="evenodd">
        <g id="Layout992" transform="translate(-483.000000, -31.000000)">
            <g id="Logo-Group" transform="translate(269.000000, 26.000000)">
                <g id="Social-Buttons" transform="translate(170.000000, 0.000000)">
                    <g id="Group-20" transform="translate(44.000000, 4.000000)">
                        <mask id="mask-2" fill="white">
                            <use xlink:href="#path-1"/>
                        </mask>
                        <g id="Clip-19"/>
                        <polygon id="Fill-18" fill="#D4AB4F" mask="url(#mask-2)" points="-5 19 27 19 27 -4 -5 -4"/>
                    </g>
                </g>
            </g>
        </g>
    </g>
</svg>