<svg xmlns="http://www.w3.org/2000/svg" width="29" height="17" viewBox="0 0 29 17">
    <path fill="#D4AB4F" fill-rule="evenodd" d="M0 13.96c0 .363.132.638.395.824.263.186.544.252.843.198.281-.055.479-.155.592-.3.113-.146.17-.386.17-.722v-3.952a.974.974 0 0 0-.293-.715A.97.97 0 0 0 .993 9a.955.955 0 0 0-.7.293.974.974 0 0 0-.293.715v3.952zm3 1.178c0 .287.093.503.279.646.186.144.424.216.714.216.3 0 .542-.072.728-.216.186-.143.279-.359.279-.646V5.085c0-.297-.098-.552-.293-.765A.932.932 0 0 0 3.993 4a.917.917 0 0 0-.7.32A1.095 1.095 0 0 0 3 5.085v10.053zm3 1.011c0 .284.095.497.284.638.189.142.432.213.73.213.288 0 .524-.07.709-.213.185-.141.277-.354.277-.638V7.1c0-.303-.097-.562-.29-.777A.905.905 0 0 0 7.013 6a.94.94 0 0 0-.717.323A1.107 1.107 0 0 0 6 7.1v9.05zm3 .087c0 .51.333.764 1 .764s1-.255 1-.764V2.345c0-.778-.23-1.218-.69-1.32-.296-.074-.59.014-.878.264C9.144 1.54 9 1.891 9 2.345v13.891zm3 .393V1.112c0-.494.143-.789.43-.884a7.945 7.945 0 0 1 5.796.799 8.233 8.233 0 0 1 2.96 2.802 8.513 8.513 0 0 1 1.31 3.915 4.44 4.44 0 0 1 1.803-.37c1.295 0 2.402.47 3.321 1.411.92.942 1.38 2.073 1.38 3.395 0 1.33-.46 2.467-1.38 3.408C26.7 16.53 25.598 17 24.313 17l-12.063-.014a.327.327 0 0 1-.188-.157.43.43 0 0 1-.062-.2z"/>
</svg>